<svg width="58" height="58" viewBox="0 0 58 58" fill="none" xmlns="http://www.w3.org/2000/svg">
<circle cx="28.9594" cy="28.9594" r="28.9594" fill="#1A5BC7"/>
<path d="M36.9421 27.7791C39.4663 27.7791 41.5126 29.8254 41.5126 32.3496C41.5126 34.8738 39.4663 36.9201 36.9421 36.9201L22.0881 36.9202C18.9328 36.9202 16.375 34.3621 16.375 31.2068C16.375 28.1788 18.7311 25.7012 21.7098 25.5063C22.991 22.7974 25.7483 20.9234 28.9438 20.9234C32.9734 20.9234 36.3076 23.9034 36.8618 27.7798C36.8887 27.7794 36.9151 27.7791 36.9421 27.7791Z" fill="white" stroke="white" stroke-width="0.909043" stroke-linecap="round" stroke-linejoin="round"/>
<path d="M23.9526 38.5575H12.5565V49.9536M33.0695 20.3237H44.4656V8.9276M11.6061 22.6107C12.884 19.4477 15.0236 16.7067 17.7817 14.6991C20.5398 12.6915 23.8087 11.4975 27.2113 11.2536C30.614 11.0097 34.0148 11.7251 37.031 13.3188C40.0473 14.9124 42.5538 17.3209 44.2698 20.2693M45.4173 36.2716C44.1394 39.4346 41.9997 42.1756 39.2416 44.1832C36.4835 46.1907 33.218 47.3833 29.8154 47.6272C26.4127 47.8711 23.0092 47.1557 19.9929 45.5621C16.9767 43.9684 14.4684 41.5604 12.7524 38.612" stroke="white" stroke-width="0.892764" stroke-linecap="round" stroke-linejoin="round"/>
</svg>
