<svg width="26" height="27" viewBox="0 0 26 27" fill="none" xmlns="http://www.w3.org/2000/svg">
  <path fill-rule="evenodd" clip-rule="evenodd"
    d="M21.5433 13.7021C21.5433 13.0711 21.4867 12.4643 21.3815 11.8818H13V15.3242H17.7894C17.5831 16.4366 16.9561 17.3792 16.0136 18.0102V20.2431H18.8897C20.5725 18.6938 21.5433 16.4124 21.5433 13.7021Z"
    fill="#4285F4" />
  <path fill-rule="evenodd" clip-rule="evenodd"
    d="M12.9998 22.3991C15.4026 22.3991 17.4171 21.6022 18.8895 20.243L16.0134 18.0101C15.2166 18.5441 14.1972 18.8596 12.9998 18.8596C10.682 18.8596 8.72009 17.2941 8.02028 15.1907H5.04712V17.4964C6.51145 20.4048 9.52103 22.3991 12.9998 22.3991Z"
    fill="#34A853" />
  <path fill-rule="evenodd" clip-rule="evenodd"
    d="M8.02031 15.1909C7.84233 14.6569 7.7412 14.0865 7.7412 13.5C7.7412 12.9135 7.84233 12.3431 8.02031 11.8091V9.50342H5.04714C4.44442 10.7048 4.10059 12.064 4.10059 13.5C4.10059 14.936 4.44442 16.2952 5.04714 17.4966L8.02031 15.1909Z"
    fill="#FBBC05" />
  <path fill-rule="evenodd" clip-rule="evenodd"
    d="M12.9998 8.14007C14.3064 8.14007 15.4795 8.58908 16.4018 9.47091L18.9543 6.91844C17.4131 5.48242 15.3986 4.60059 12.9998 4.60059C9.52103 4.60059 6.51145 6.59483 5.04712 9.50328L8.02028 11.809C8.72009 9.70553 10.682 8.14007 12.9998 8.14007Z"
    fill="#EA4335" />
</svg>