<svg width="24" height="24" viewBox="0 0 24 24" fill="none" xmlns="http://www.w3.org/2000/svg">
  <path
    d="M3.9994 4L19.9994 20M16.4994 16.7559C15.1468 17.4845 13.618 17.9999 11.9994 17.9999C8.46875 17.9999 5.36575 15.5478 3.58632 13.7788C3.11661 13.3119 2.8818 13.0784 2.73231 12.6201C2.6257 12.2933 2.62567 11.7066 2.73231 11.3797C2.88185 10.9215 3.11715 10.6875 3.58778 10.2197C4.48467 9.32821 5.71752 8.26359 7.17171 7.42676M19.4994 14.6335C19.8325 14.3405 20.1375 14.0523 20.4112 13.7803L20.4141 13.7772C20.8827 13.3114 21.1177 13.0779 21.2669 12.6206C21.3736 12.2938 21.3733 11.7068 21.2667 11.38C21.1173 10.9219 20.8822 10.6877 20.4128 10.2211C18.6334 8.45208 15.5301 6 11.9994 6C11.6619 6 11.3283 6.02241 10.9994 6.06448M13.3223 13.5C12.9697 13.8112 12.5066 14 11.9994 14C10.8948 14 9.9994 13.1046 9.9994 12C9.9994 11.4605 10.213 10.9711 10.5603 10.6113"
    stroke="#2F333C" stroke-width="2" stroke-linecap="round" stroke-linejoin="round" />
</svg>